<svg xmlns="http://www.w3.org/2000/svg" xmlns:svg="http://www.w3.org/2000/svg" id="svg4874" width="96" height="96" version="1.1" viewBox="0 0 96 96"><metadata id="metadata4879"/><g id="layer1" transform="translate(67.857146,-78.50504)"><g id="g4845" display="inline" transform="matrix(0,-1,-1,0,373.50506,516.50504)"><g id="g4778" transform="matrix(-0.9996045,0,0,1,575.94296,-611.00001)"><g id="g4780" display="inline" transform="matrix(-1,0,0,1,575.99999,611)"><rect id="rect4782" width="96.038" height="96" x="-438.002" y="345.362" fill="none" stroke="none" stroke-width="4" color="#000" display="inline" enable-background="accumulate" overflow="visible" transform="scale(-1,1)" visibility="visible" style="marker:none"/><path id="path4186" fill="gray" fill-opacity="1" stroke="none" stroke-width="1" d="M 48 20.300781 C 38.61157 20.300781 29.819444 21.544274 21.621094 24.03125 C 13.488864 26.571345 6.28099 29.969999 0 34.097656 L 0 35.232422 L 0 39.271484 L 0 62.966797 L 0 66.166016 C 2.93113 68.718876 6.2948036 70.82159 10.089844 72.392578 C 11.323477 72.888539 12.589509 73.29685 13.880859 73.632812 L 17.244141 70.269531 C 15.283162 69.934471 13.404813 69.408912 11.597656 68.683594 C 8.7613264 67.507089 6.27868 65.947008 4 64.164062 L 4 62.964844 L 4 39.269531 L 4 36.435547 C 9.542 33.009802 15.729632 30.063875 22.794922 27.855469 C 30.583732 25.494273 38.97036 24.298828 48 24.298828 C 52.916134 24.298828 57.624009 24.665973 62.144531 25.369141 L 65.607422 21.90625 C 60.005065 20.842721 54.13948 20.300781 48 20.300781 z M 70.246094 22.925781 L 66.923828 26.248047 C 69.024109 26.704344 71.082361 27.236254 73.095703 27.851562 C 80.229583 30.061849 86.449297 33.012269 91.998047 36.439453 L 91.998047 39.269531 L 91.998047 62.964844 L 91.998047 64.160156 C 89.713992 65.94464 87.218872 67.510852 84.349609 68.689453 L 84.345703 68.691406 C 81.051703 70.023849 77.507023 70.701172 73.601562 70.701172 C 69.696742 70.701172 66.133404 70.021738 62.802734 68.685547 C 59.409344 67.278264 56.432808 65.417224 53.830078 63.150391 L 53.794922 63.121094 L 53.759766 63.089844 C 52.994136 62.453446 52.124454 61.956258 51.214844 61.599609 L 51.207031 61.597656 L 51.199219 61.59375 C 50.171819 61.195817 49.073763 61.009766 48.001953 61.009766 C 46.929423 61.009766 45.832334 61.196839 44.808594 61.589844 L 44.789062 61.597656 L 44.771484 61.603516 C 43.867754 61.960734 43.003398 62.457134 42.242188 63.089844 L 42.207031 63.121094 L 42.169922 63.150391 C 39.568072 65.416474 36.578527 67.280481 33.148438 68.689453 L 33.142578 68.691406 C 29.869696 70.015297 26.348487 70.690591 22.472656 70.699219 L 18.673828 74.498047 C 19.893567 74.626439 21.134248 74.699219 22.400391 74.699219 C 26.781661 74.699219 30.869023 73.93071 34.664062 72.392578 C 38.489962 70.82159 41.869661 68.718876 44.800781 66.166016 C 45.219521 65.817963 45.700038 65.536561 46.242188 65.322266 C 46.788738 65.112449 47.37411 65.007812 48 65.007812 C 48.6259 65.007812 49.209803 65.112279 49.751953 65.322266 C 50.298513 65.536561 50.780489 65.817963 51.199219 66.166016 C 54.130359 68.718876 57.494023 70.82159 61.289062 72.392578 C 65.114953 73.93071 69.218349 74.699219 73.599609 74.699219 C 77.980879 74.699219 82.070194 73.93071 85.865234 72.392578 C 89.691134 70.82159 93.06887 68.718876 96 66.166016 L 96 62.966797 L 96 39.271484 L 96 35.232422 L 96 34.097656 C 89.71902 29.969999 82.4796 26.571345 74.28125 24.03125 C 72.954808 23.625602 71.605967 23.265265 70.246094 22.925781 z" display="inline" font-family="Ubuntu" font-size="14.463" font-stretch="normal" font-style="normal" font-variant="normal" font-weight="normal" letter-spacing="0" text-anchor="middle" transform="matrix(0,-1,-1.0003957,0,438.00245,441.36222)" word-spacing="0" writing-mode="lr-tb" style="line-height:125%;-inkscape-font-specification:Ubuntu;text-align:center"/><path id="path4184" fill="gray" fill-opacity="1" stroke="none" stroke-width="1" d="M 25.599609 42.798828 C 22.470139 42.798828 19.539431 43.32309 16.806641 44.376953 C 14.095901 45.453007 11.693269 46.866326 9.5996094 48.615234 C 11.693269 50.364032 14.095901 51.775398 16.806641 52.851562 C 19.539431 53.905326 22.470139 54.433594 25.599609 54.433594 C 28.729089 54.433594 31.650578 53.905326 34.361328 52.851562 C 34.545269 52.779127 34.71544 52.692671 34.896484 52.617188 L 40.070312 47.443359 C 38.353065 46.225521 36.453033 45.200579 34.361328 44.376953 C 31.650578 43.32309 28.729089 42.798828 25.599609 42.798828 z" display="inline" font-family="Ubuntu" font-size="14.463" font-stretch="normal" font-style="normal" font-variant="normal" font-weight="normal" letter-spacing="0" text-anchor="middle" transform="matrix(0,-1,-1.0003957,0,438.00245,441.36222)" word-spacing="0" writing-mode="lr-tb" style="line-height:125%;-inkscape-font-specification:Ubuntu;text-align:center"/><path id="path4120" fill="gray" fill-opacity="1" stroke="none" stroke-width="1" d="m 395.18763,370.96223 c 0,-3.12948 -0.5255,-6.04967 -1.57978,-8.76042 -1.07648,-2.73278 -2.48958,-5.14591 -4.23918,-7.23958 -1.74949,2.09367 -3.16259,4.5068 -4.23918,7.23958 -1.05418,2.71075 -1.58188,5.63094 -1.58188,8.76042 0,3.12948 0.5277,6.06097 1.58188,8.79376 1.07659,2.71074 2.48969,5.11258 4.23918,7.20625 1.7496,-2.09367 3.1627,-4.49551 4.23918,-7.20625 1.05428,-2.73279 1.57978,-5.66428 1.57978,-8.79376 z" display="inline" font-family="Ubuntu" font-size="14.463" font-stretch="normal" font-style="normal" font-variant="normal" font-weight="normal" letter-spacing="0" text-anchor="middle" word-spacing="0" writing-mode="lr-tb" style="line-height:125%;-inkscape-font-specification:Ubuntu;text-align:center"/><path id="path4205" fill="gray" fill-opacity="1" fill-rule="nonzero" stroke="none" stroke-dasharray="none" stroke-dashoffset="0" stroke-linecap="butt" stroke-linejoin="miter" stroke-miterlimit="4" stroke-opacity="1" stroke-width="4.001" d="m 428.58594,351.94727 -80.03321,80 2.83008,2.83007 80.03125,-80 -2.82812,-2.83007 z" baseline-shift="baseline" clip-rule="nonzero" color="#000" color-interpolation="sRGB" color-interpolation-filters="linearRGB" color-rendering="auto" direction="ltr" display="inline" enable-background="accumulate" font-family="sans-serif" font-size="medium" font-stretch="normal" font-style="normal" font-variant="normal" font-weight="normal" image-rendering="auto" letter-spacing="normal" opacity="1" overflow="visible" shape-rendering="auto" text-anchor="start" text-decoration="none" text-rendering="auto" visibility="visible" word-spacing="normal" writing-mode="lr-tb" style="line-height:normal;text-indent:0;text-align:start;text-decoration-line:none;text-decoration-style:solid;text-decoration-color:#000;text-transform:none;block-progression:tb;white-space:normal;shape-padding:0;isolation:auto;mix-blend-mode:normal;solid-color:#000;solid-opacity:1;marker:none"/></g></g></g></g></svg>